<svg id="Ebene_1" data-name="Ebene 1" xmlns="http://www.w3.org/2000/svg" viewBox="0 0 102.2 52.14"><defs><style>.cls-1{fill:none;stroke:#fff;stroke-linecap:round;stroke-miterlimit:10;stroke-width:1.59px;}.cls-2{fill:#fff;}</style></defs><title>Zeit</title><path class="cls-1" d="M586.6,410.54c-1.46,1.46-.74,4,0.72,5.45" transform="translate(-585 -409.75)"/><path class="cls-2" d="M669.06,461.89a0.93,0.93,0,0,1-.24,0,1,1,0,0,1-.67-0.65l-1.77-6.14-5.65-1.31a0.95,0.95,0,0,1-.45-1.59L677.47,435a1,1,0,0,1,.88-0.25l6.19,1.44a1,1,0,0,1,.69.66l1.92,6.68a1,1,0,0,1-.24.93l-17.19,17.19A1,1,0,0,1,669.06,461.89Zm-6.24-9.59,4.53,1.05a1,1,0,0,1,.69.66l1.48,5.14,15.67-15.67-1.62-5.61-5.14-1.19Z" transform="translate(-585 -409.75)"/><rect class="cls-2" x="670.55" y="448.09" width="1.35" height="5.4" transform="translate(-707.16 196.91) rotate(-45)"/><rect class="cls-2" x="674.41" y="444.23" width="1.35" height="5.4" transform="translate(-703.28 198.61) rotate(-45.01)"/><rect class="cls-2" x="678.27" y="440.37" width="1.35" height="5.4" transform="translate(-699.46 200.01) rotate(-44.99)"/></svg>