<?xml version="1.0" encoding="utf-8"?>
<!-- Generator: Adobe Illustrator 19.2.1, SVG Export Plug-In . SVG Version: 6.00 Build 0)  -->
<svg version="1.1" id="Ebene_1" xmlns="http://www.w3.org/2000/svg" xmlns:xlink="http://www.w3.org/1999/xlink" x="0px" y="0px"
	 viewBox="0 0 20.8 19.1" style="enable-background:new 0 0 20.8 19.1;" xml:space="preserve">
<style type="text/css">
	.st0{fill:#FFFFFF;}
</style>
<title>Klammer</title>
<g>
	<path class="st0" d="M19.3,15c0,0-4.4-3.3-8.1,0V5.8c0,0,0-0.4,0.3-0.8c2-2.5,5.2-2.6,7.3-0.1c0.4,0.6,0.4,1.1,0.4,1.1V15z M9.6,15
		c-3.7-3.3-8.1,0-8.1,0V6.1c0,0,0-0.6,0.4-1.1C4,2.5,7.2,2.5,9.3,5c0.3,0.3,0.3,0.8,0.3,0.8V15z M20.8,5.8c0-0.6-0.2-1.1-0.6-1.6
		c-2.5-3.2-6.6-3.4-9.4-0.6c-0.1,0.1-0.3,0.3-0.4,0.4C10.3,4,10.1,3.7,10,3.6C7.1,0.8,3.1,1,0.6,4.2C0.2,4.7,0,5.2,0,5.8
		C0,8.6,0,9.3,0,11c0,2,0,4,0,6c0.2,0.1,1.5,0.4,2-0.3c0.6-0.9,1.5-1.4,2.5-1.7c2-0.5,3.6,0.4,4.8,1.9c0.3,0.4,0.7,0.6,1.1,0.5
		c0.4,0,0.8-0.2,1.1-0.5c1.3-1.5,2.8-2.3,4.8-1.9c1,0.2,1.9,0.8,2.5,1.7c0.5,0.7,1.8,0.4,2,0.3c0-2,0-4,0-6
		C20.8,9.3,20.8,8.6,20.8,5.8"/>
</g>
</svg>
