<svg id="Ebene_1" data-name="Ebene 1" xmlns="http://www.w3.org/2000/svg" viewBox="0 0 96.34 49.14"><defs><style>.cls-1{fill:none;stroke:#fff;stroke-linecap:round;stroke-miterlimit:10;stroke-width:1.59px;}.cls-2{fill:#fff;}</style></defs><title>Ort</title><path class="cls-1" d="M586.6,410.54c-1.46,1.46-.74,4,0.72,5.45" transform="translate(-585 -409.75)"/><path class="cls-2" d="M673.7,458.89l-0.62-.53c-2.66-2.28-7.08-9.84-7.08-13.86a7.67,7.67,0,0,1,15.33,0c0,4.11-4.63,11.53-7,13.83Zm0-20.25a5.86,5.86,0,0,0-5.86,5.86c0,3.17,3.47,9.35,5.83,11.89,2.25-2.6,5.89-8.78,5.89-11.89A5.87,5.87,0,0,0,673.67,438.64Z" transform="translate(-585 -409.75)"/><path class="cls-2" d="M673.67,446a1.94,1.94,0,1,0-1.94-1.94,1.94,1.94,0,0,0,1.94,1.94" transform="translate(-585 -409.75)"/></svg>