<?xml version="1.0" encoding="UTF-8" standalone="no"?>
<!-- Generator: Adobe Illustrator 19.2.1, SVG Export Plug-In . SVG Version: 6.00 Build 0)  -->

<svg
   xmlns:dc="http://purl.org/dc/elements/1.1/"
   xmlns:cc="http://creativecommons.org/ns#"
   xmlns:rdf="http://www.w3.org/1999/02/22-rdf-syntax-ns#"
   xmlns:svg="http://www.w3.org/2000/svg"
   xmlns="http://www.w3.org/2000/svg"
   xmlns:sodipodi="http://sodipodi.sourceforge.net/DTD/sodipodi-0.dtd"
   xmlns:inkscape="http://www.inkscape.org/namespaces/inkscape"
   version="1.1"
   id="Ebene_1"
   x="0px"
   y="0px"
   viewBox="0 0 23.700001 20.2"
   xml:space="preserve"
   sodipodi:docname="menu-lookup.svg"
   inkscape:version="0.92.0 r15299"
   width="23.700001"
   height="20.200001"><metadata
     id="metadata3738"><rdf:RDF><cc:Work
         rdf:about=""><dc:format>image/svg+xml</dc:format><dc:type
           rdf:resource="http://purl.org/dc/dcmitype/StillImage" /><dc:title>Klammer</dc:title></cc:Work></rdf:RDF></metadata><defs
     id="defs3736" /><sodipodi:namedview
     pagecolor="#ffffff"
     bordercolor="#666666"
     borderopacity="1"
     objecttolerance="10"
     gridtolerance="10"
     guidetolerance="10"
     inkscape:pageopacity="0"
     inkscape:pageshadow="2"
     inkscape:window-width="1440"
     inkscape:window-height="876"
     id="namedview3734"
     showgrid="false"
     inkscape:zoom="5"
     inkscape:cx="45.604068"
     inkscape:cy="3.7054285"
     inkscape:window-x="-8"
     inkscape:window-y="-8"
     inkscape:window-maximized="1"
     inkscape:current-layer="Ebene_1"
     inkscape:showpageshadow="false" /><style
     type="text/css"
     id="style3701">
	.st0{fill:#971579;}
	.st1{fill:none;stroke:#FFFFFF;stroke-width:1.021;stroke-linecap:round;stroke-miterlimit:10;}
	.st2{fill:#F29000;}
	.st3{fill:none;stroke:#FFFFFF;stroke-width:1.128;}
	.st4{fill:#FFFFFF;}
	.st5{fill:#3DA2DA;}
	.st6{fill:none;stroke:#FFFFFF;stroke-width:1.024;stroke-linecap:round;stroke-linejoin:round;}
	.st7{fill:none;stroke:#FFFFFF;stroke-width:0.731;stroke-linecap:round;}
	.st8{fill:#9B9B9B;}
</style><title
     id="title3703">Klammer</title><g
     id="g3781"
     transform="translate(-79.900002)"><rect
       id="rect3729"
       height="20.200001"
       width="23.700001"
       class="st8"
       y="0"
       x="79.900002"
       style="fill:#9b9b9b" /><path
       id="path3731"
       d="m 97.7,13.9 c 0,0 -3.1,-2.3 -5.6,0 V 7.5 c 0,0 0,-0.3 0.2,-0.5 1.4,-1.8 3.7,-1.8 5.1,-0.1 0.3,0.4 0.3,0.8 0.3,0.8 z m -6.7,0 c -2.6,-2.3 -5.6,0 -5.6,0 V 7.7 c 0,0 0,-0.4 0.3,-0.8 C 87.2,5.2 89.4,5.2 90.8,7 91,7.2 91,7.5 91,7.5 Z M 98.8,7.5 C 98.8,7.1 98.7,6.7 98.4,6.4 96.6,4.1 93.8,4 91.8,6 91.7,6.1 91.6,6.2 91.5,6.3 91.4,6.2 91.3,6 91.2,6 c -2,-2 -4.8,-1.8 -6.6,0.4 -0.3,0.3 -0.4,0.7 -0.4,1.1 0,2 0,2.4 0,3.6 0,1.4 0,2.8 0,4.2 0.1,0 1,0.3 1.4,-0.2 0.4,-0.6 1,-1 1.8,-1.2 1.4,-0.3 2.5,0.2 3.4,1.3 0.2,0.3 0.5,0.4 0.8,0.4 0.3,0 0.5,-0.1 0.8,-0.4 0.9,-1.1 2,-1.6 3.4,-1.3 0.7,0.2 1.4,0.6 1.8,1.2 0.3,0.5 1.2,0.3 1.4,0.2 0,-1.4 0,-2.8 0,-4.2 C 98.8,9.9 98.8,9.5 98.8,7.5"
       class="st4"
       inkscape:connector-curvature="0"
       style="fill:#ffffff" /></g></svg>