<?xml version="1.0" encoding="utf-8"?>
<!-- Generator: Adobe Illustrator 16.0.0, SVG Export Plug-In . SVG Version: 6.00 Build 0)  -->
<!DOCTYPE svg PUBLIC "-//W3C//DTD SVG 1.1//EN" "http://www.w3.org/Graphics/SVG/1.1/DTD/svg11.dtd">
<svg version="1.1" id="Ebene_1" xmlns:sketch="http://www.bohemiancoding.com/sketch/ns"
	 xmlns="http://www.w3.org/2000/svg" xmlns:xlink="http://www.w3.org/1999/xlink" x="0px" y="0px" width="22px" height="32px"
	 viewBox="-4 -6 22 32" enable-background="new -4 -6 22 32" xml:space="preserve">
<title>marker</title>
<desc>Created with Sketch.</desc>
<g id="Introduction" sketch:type="MSPage">
	<g id="Karte" transform="translate(-619.000000, -1352.000000)" sketch:type="MSArtboardGroup">
		<g id="marker" transform="translate(619.635624, 1351.175781)" sketch:type="MSLayerGroup">
			<path id="Fill-30" sketch:type="MSShapeGroup" fill="#D81023" d="M-2.886,9.058l7.141,15.123c0.21,0.456,0.525,0.771,0.911,1.016
				c0.42,0.244,0.875,0.386,1.331,0.386s0.909-0.142,1.33-0.386c0.385-0.245,0.7-0.56,0.909-1.016l7.142-15.123
				c0.42-0.909,0.63-2.064,0.63-3.5c0-2.731-0.979-5.11-2.939-7.037c-1.961-1.96-4.307-2.94-7.071-2.94
				c-2.766,0-5.111,0.979-7.071,2.94c-1.96,1.926-2.942,4.306-2.942,7.037C-3.516,6.994-3.306,8.149-2.886,9.058L-2.886,9.058z
				 M6.497,0.588c1.365,0,2.554,0.49,3.535,1.47c0.979,0.981,1.472,2.135,1.472,3.501c0,1.399-0.492,2.555-1.472,3.536
				c-0.98,0.979-2.17,1.469-3.535,1.469c-1.366,0-2.557-0.49-3.536-1.469C1.98,8.113,1.49,6.958,1.49,5.559
				c0-1.366,0.49-2.52,1.471-3.501C3.94,1.078,5.13,0.588,6.497,0.588L6.497,0.588z"/>
		</g>
	</g>
</g>
</svg>
