<?xml version="1.0" encoding="UTF-8" standalone="no"?>
<svg width="14px" height="20px" viewBox="0 0 14 20" version="1.1" xmlns="http://www.w3.org/2000/svg" xmlns:xlink="http://www.w3.org/1999/xlink" xmlns:sketch="http://www.bohemiancoding.com/sketch/ns">
    <!-- Generator: Sketch 3.3.2 (12043) - http://www.bohemiancoding.com/sketch -->
    <title>marker</title>
    <desc>Created with Sketch.</desc>
    <defs></defs>
    <g id="Introduction" stroke="none" stroke-width="1" fill="none" fill-rule="evenodd" sketch:type="MSPage">
        <g id="Karte" sketch:type="MSArtboardGroup" transform="translate(-619.000000, -1352.000000)" fill="#D81023">
            <g id="marker" sketch:type="MSLayerGroup" transform="translate(619.635624, 1351.175781)">
                <path d="M0.48,9.605 L5.059,19.302 C5.194,19.594 5.396,19.796 5.643,19.953 C5.912,20.11 6.204,20.2 6.496,20.2 C6.788,20.2 7.079,20.11 7.349,19.953 C7.596,19.796 7.798,19.594 7.932,19.302 L12.511,9.605 C12.781,9.022 12.915,8.281 12.915,7.361 C12.915,5.61 12.287,4.084 11.03,2.849 C9.773,1.592 8.269,0.964 6.496,0.964 C4.723,0.964 3.219,1.592 1.962,2.849 C0.705,4.084 0.076,5.61 0.076,7.361 C0.076,8.281 0.211,9.022 0.48,9.605 L0.48,9.605 Z M6.496,4.174 C7.371,4.174 8.134,4.488 8.763,5.116 C9.391,5.745 9.706,6.485 9.706,7.361 C9.706,8.258 9.391,8.999 8.763,9.628 C8.134,10.256 7.371,10.57 6.496,10.57 C5.62,10.57 4.857,10.256 4.229,9.628 C3.6,8.999 3.286,8.258 3.286,7.361 C3.286,6.485 3.6,5.745 4.229,5.116 C4.857,4.488 5.62,4.174 6.496,4.174 L6.496,4.174 Z" id="Fill-30" sketch:type="MSShapeGroup"></path>
            </g>
        </g>
    </g>
</svg>